<svg xmlns="http://www.w3.org/2000/svg" xmlns:xlink="http://www.w3.org/1999/xlink" version="1.1" id="Layer_1" x="0px" y="0px" width="100px" height="100px" viewBox="0 0 100 100" enable-background="new 0 0 100 100" xml:space="preserve">
    <style>
        .style0{
            fill:	#FFFFFF;
        }
    </style>
    <path d="M69.873 15.69c-0.198 0-6.256-1.607-19.455-1.607c-13.011 0-19.258 1.607-19.455 1.6 c-0.45 0-0.66 0.407-0.612 0.828c0.049 0.4 1.3 13.7 1.3 13.685l4.987 52.44c0 0 0.2 0.6 0.4 0.8 c0.995 1 5.4 2.5 12.9 2.592v0.008c0.15 0 0.298-0.002 0.445-0.002s0.295 0 0.4 0.002v-0.008 c7.528-0.108 11.911-1.584 12.905-2.592c0.219-0.222 0.385-0.841 0.385-0.841l4.988-52.44c0 0 1.295-13.265 1.344-13.685 C70.533 16.1 70.3 15.7 69.9 15.7" class="style0"/>
</svg>
